<svg xmlns="http://www.w3.org/2000/svg" viewBox="0 0 1600 1000" preserveAspectRatio="xMidYMid slice">
<defs>
<linearGradient id="bg" x1="0" y1="0" x2="0.4" y2="1"><stop offset="0" stop-color="#0d3c33"/><stop offset="1" stop-color="#64c3ab"/></linearGradient>
<radialGradient id="glow"><stop offset="0" stop-color="#f8efd2" stop-opacity="0.55"/><stop offset="1" stop-color="#f8efd2" stop-opacity="0"/></radialGradient>
</defs>
<rect width="1600" height="1000" fill="url(#bg)"/>
<circle cx="867" cy="194" r="3.0" fill="#f8efd2" fill-opacity="0.43"/><circle cx="663" cy="49" r="3.0" fill="#f8efd2" fill-opacity="0.41"/><circle cx="633" cy="329" r="2.1" fill="#f8efd2" fill-opacity="0.47"/><circle cx="1334" cy="395" r="3.4" fill="#f8efd2" fill-opacity="0.23"/><circle cx="872" cy="365" r="3.1" fill="#f8efd2" fill-opacity="0.29"/><circle cx="221" cy="313" r="1.7" fill="#f8efd2" fill-opacity="0.40"/><circle cx="11" cy="227" r="2.5" fill="#f8efd2" fill-opacity="0.19"/><circle cx="768" cy="250" r="2.2" fill="#f8efd2" fill-opacity="0.46"/><circle cx="1385" cy="445" r="2.0" fill="#f8efd2" fill-opacity="0.16"/><circle cx="602" cy="56" r="2.9" fill="#f8efd2" fill-opacity="0.24"/><circle cx="205" cy="141" r="2.3" fill="#f8efd2" fill-opacity="0.41"/><circle cx="737" cy="150" r="2.9" fill="#f8efd2" fill-opacity="0.17"/><circle cx="334" cy="343" r="3.0" fill="#f8efd2" fill-opacity="0.19"/><circle cx="106" cy="252" r="2.8" fill="#f8efd2" fill-opacity="0.16"/><circle cx="698" cy="137" r="1.7" fill="#f8efd2" fill-opacity="0.21"/><circle cx="457" cy="233" r="1.7" fill="#f8efd2" fill-opacity="0.37"/><circle cx="1406" cy="341" r="1.6" fill="#f8efd2" fill-opacity="0.38"/><circle cx="1014" cy="4" r="2.3" fill="#f8efd2" fill-opacity="0.38"/><circle cx="1520" cy="464" r="2.6" fill="#f8efd2" fill-opacity="0.36"/><circle cx="1533" cy="105" r="2.5" fill="#f8efd2" fill-opacity="0.17"/><circle cx="1239" cy="326" r="1.9" fill="#f8efd2" fill-opacity="0.22"/><circle cx="837" cy="375" r="1.8" fill="#f8efd2" fill-opacity="0.26"/><circle cx="820" cy="130" r="3.3" fill="#f8efd2" fill-opacity="0.40"/><circle cx="1528" cy="320" r="2.9" fill="#f8efd2" fill-opacity="0.25"/><circle cx="807" cy="214" r="2.5" fill="#f8efd2" fill-opacity="0.17"/><circle cx="1359" cy="77" r="2.4" fill="#f8efd2" fill-opacity="0.48"/><circle cx="820" cy="434" r="2.0" fill="#f8efd2" fill-opacity="0.31"/><circle cx="606" cy="162" r="2.2" fill="#f8efd2" fill-opacity="0.31"/>
<circle cx="1129" cy="354" r="377" fill="url(#glow)"/>
<circle cx="1129" cy="354" r="111" fill="#f8efd2" fill-opacity="0.92"/>
<path d="M0,1000 L0,535 L20,539 L40,542 L60,544 L80,545 L100,546 L120,547 L140,547 L160,547 L180,547 L200,547 L220,548 L240,548 L260,549 L280,550 L300,552 L320,554 L340,556 L360,558 L380,560 L400,563 L420,565 L440,566 L460,567 L480,568 L500,567 L520,566 L540,564 L560,561 L580,557 L600,552 L620,546 L640,539 L660,532 L680,524 L700,516 L720,508 L740,500 L760,492 L780,484 L800,477 L820,471 L840,466 L860,462 L880,460 L900,458 L920,457 L940,458 L960,459 L980,462 L1000,465 L1020,469 L1040,473 L1060,478 L1080,483 L1100,488 L1120,493 L1140,497 L1160,501 L1180,505 L1200,508 L1220,510 L1240,513 L1260,514 L1280,516 L1300,517 L1320,518 L1340,519 L1360,521 L1380,522 L1400,524 L1420,526 L1440,528 L1460,531 L1480,535 L1500,539 L1520,544 L1540,548 L1560,553 L1580,558 L1600,563 L1620,568 L1620,1000 Z" fill="#4ea18d" fill-opacity="0.55"/><path d="M0,1000 L0,707 L20,705 L40,702 L60,699 L80,695 L100,691 L120,687 L140,682 L160,677 L180,673 L200,669 L220,665 L240,661 L260,658 L280,655 L300,653 L320,651 L340,650 L360,649 L380,648 L400,648 L420,648 L440,648 L460,648 L480,647 L500,647 L520,646 L540,644 L560,643 L580,641 L600,638 L620,635 L640,631 L660,627 L680,623 L700,619 L720,614 L740,610 L760,606 L780,602 L800,599 L820,596 L840,593 L860,592 L880,591 L900,591 L920,592 L940,593 L960,595 L980,599 L1000,602 L1020,607 L1040,611 L1060,616 L1080,622 L1100,627 L1120,632 L1140,637 L1160,642 L1180,647 L1200,651 L1220,654 L1240,657 L1260,659 L1280,661 L1300,663 L1320,664 L1340,664 L1360,664 L1380,664 L1400,664 L1420,664 L1440,664 L1460,664 L1480,665 L1500,666 L1520,667 L1540,669 L1560,671 L1580,673 L1600,676 L1620,679 L1620,1000 Z" fill="#38806f" fill-opacity="0.68"/><path d="M0,1000 L0,826 L20,823 L40,820 L60,816 L80,812 L100,808 L120,803 L140,798 L160,793 L180,788 L200,783 L220,778 L240,774 L260,769 L280,766 L300,763 L320,760 L340,757 L360,756 L380,754 L400,753 L420,753 L440,752 L460,752 L480,753 L500,753 L520,754 L540,754 L560,755 L580,755 L600,755 L620,755 L640,755 L660,755 L680,754 L700,753 L720,753 L740,752 L760,751 L780,749 L800,749 L820,748 L840,747 L860,747 L880,747 L900,747 L920,748 L940,749 L960,751 L980,754 L1000,757 L1020,760 L1040,764 L1060,768 L1080,773 L1100,778 L1120,783 L1140,788 L1160,794 L1180,799 L1200,804 L1220,809 L1240,813 L1260,817 L1280,820 L1300,823 L1320,825 L1340,827 L1360,827 L1380,828 L1400,827 L1420,826 L1440,825 L1460,823 L1480,820 L1500,817 L1520,814 L1540,811 L1560,808 L1580,805 L1600,801 L1620,798 L1620,1000 Z" fill="#235e51" fill-opacity="0.81"/><path d="M0,1000 L0,934 L20,937 L40,940 L60,942 L80,943 L100,944 L120,944 L140,944 L160,943 L180,942 L200,941 L220,939 L240,937 L260,935 L280,932 L300,930 L320,928 L340,926 L360,924 L380,922 L400,920 L420,919 L440,918 L460,916 L480,915 L500,914 L520,913 L540,912 L560,911 L580,910 L600,909 L620,907 L640,905 L660,903 L680,901 L700,899 L720,896 L740,893 L760,890 L780,887 L800,884 L820,882 L840,879 L860,876 L880,874 L900,873 L920,872 L940,871 L960,871 L980,872 L1000,873 L1020,875 L1040,878 L1060,881 L1080,885 L1100,889 L1120,894 L1140,899 L1160,904 L1180,909 L1200,914 L1220,920 L1240,924 L1260,929 L1280,933 L1300,937 L1320,940 L1340,943 L1360,945 L1380,946 L1400,947 L1420,947 L1440,947 L1460,946 L1480,944 L1500,942 L1520,940 L1540,937 L1560,935 L1580,932 L1600,929 L1620,926 L1620,1000 Z" fill="#0d3c33" fill-opacity="0.94"/>
</svg>